{
    "asset" : {
        "generator" : "Khronos glTF Blender I/O v1.8.19",
        "version" : "2.0"
    },
    "scene" : 0,
    "scenes" : [
        {
            "name" : "Scene",
            "nodes" : [
                0
            ]
        }
    ],
    "nodes" : [
        {
            "mesh" : 0,
            "name" : "smartwatch dodai",
            "rotation" : [
                0,
                0.9974532127380371,
                0.07132362574338913,
                9.053284788507199e-10
            ],
            "scale" : [
                0.034103717654943466,
                0.22314009070396423,
                0.2391642928123474
            ],
            "translation" : [
                0,
                1,
                0
            ]
        }
    ],
    "animations" : [
        {
            "channels" : [
                {
                    "sampler" : 0,
                    "target" : {
                        "node" : 0,
                        "path" : "translation"
                    }
                },
                {
                    "sampler" : 1,
                    "target" : {
                        "node" : 0,
                        "path" : "scale"
                    }
                },
                {
                    "sampler" : 2,
                    "target" : {
                        "node" : 0,
                        "path" : "rotation"
                    }
                }
            ],
            "name" : "smartwatch dodaiAction",
            "samplers" : [
                {
                    "input" : 29,
                    "interpolation" : "LINEAR",
                    "output" : 30
                },
                {
                    "input" : 31,
                    "interpolation" : "LINEAR",
                    "output" : 32
                },
                {
                    "input" : 33,
                    "interpolation" : "LINEAR",
                    "output" : 34
                }
            ]
        }
    ],
    "materials" : [
        {
            "doubleSided" : true,
            "name" : "watch dodai1",
            "pbrMetallicRoughness" : {
                "baseColorFactor" : [
                    0.0033170117530971766,
                    0.0033170117530971766,
                    0.0033170117530971766,
                    1
                ],
                "metallicFactor" : 0,
                "roughnessFactor" : 0.5
            }
        },
        {
            "doubleSided" : true,
            "name" : "watch dodai2",
            "pbrMetallicRoughness" : {
                "baseColorFactor" : [
                    0.09905164688825607,
                    0.09905164688825607,
                    0.09905164688825607,
                    1
                ],
                "metallicFactor" : 0,
                "roughnessFactor" : 0.5
            }
        },
        {
            "doubleSided" : true,
            "name" : "smawatch apli6",
            "pbrMetallicRoughness" : {
                "baseColorFactor" : [
                    0.8000000715255737,
                    0.7948117852210999,
                    0.6795450448989868,
                    1
                ],
                "metallicFactor" : 0,
                "roughnessFactor" : 0.5
            }
        },
        {
            "doubleSided" : true,
            "name" : "smawatch apli2",
            "pbrMetallicRoughness" : {
                "baseColorFactor" : [
                    0.8000000715255737,
                    0.013302421197295189,
                    0.03860680013895035,
                    1
                ],
                "metallicFactor" : 0,
                "roughnessFactor" : 0.5
            }
        },
        {
            "doubleSided" : true,
            "name" : "smawatch apli.002",
            "pbrMetallicRoughness" : {
                "baseColorFactor" : [
                    0.04731014743447304,
                    0.2520444989204407,
                    0.8000000715255737,
                    1
                ],
                "metallicFactor" : 0,
                "roughnessFactor" : 0.5
            }
        },
        {
            "doubleSided" : true,
            "name" : "smawatch apli3",
            "pbrMetallicRoughness" : {
                "baseColorFactor" : [
                    0.8000000715255737,
                    0.41602623462677,
                    0.05151071771979332,
                    1
                ],
                "metallicFactor" : 0,
                "roughnessFactor" : 0.5
            }
        },
        {
            "doubleSided" : true,
            "name" : "smawatch apli7",
            "pbrMetallicRoughness" : {
                "baseColorFactor" : [
                    0,
                    0.8000000715255737,
                    0.0015422077849507332,
                    1
                ],
                "metallicFactor" : 0,
                "roughnessFactor" : 0.5
            }
        },
        {
            "doubleSided" : true,
            "name" : "smawatch apli.008",
            "pbrMetallicRoughness" : {
                "baseColorFactor" : [
                    0.04731014743447304,
                    0.2520444989204407,
                    0.8000000715255737,
                    1
                ],
                "metallicFactor" : 0,
                "roughnessFactor" : 0.5
            }
        }
    ],
    "meshes" : [
        {
            "name" : "\u5186\u67f1",
            "primitives" : [
                {
                    "attributes" : {
                        "POSITION" : 0,
                        "NORMAL" : 1,
                        "TEXCOORD_0" : 2
                    },
                    "indices" : 3,
                    "material" : 0
                },
                {
                    "attributes" : {
                        "POSITION" : 4,
                        "NORMAL" : 5,
                        "TEXCOORD_0" : 6
                    },
                    "indices" : 7,
                    "material" : 1
                },
                {
                    "attributes" : {
                        "POSITION" : 8,
                        "NORMAL" : 9,
                        "TEXCOORD_0" : 10
                    },
                    "indices" : 11,
                    "material" : 2
                },
                {
                    "attributes" : {
                        "POSITION" : 12,
                        "NORMAL" : 13,
                        "TEXCOORD_0" : 14
                    },
                    "indices" : 15,
                    "material" : 3
                },
                {
                    "attributes" : {
                        "POSITION" : 16,
                        "NORMAL" : 17,
                        "TEXCOORD_0" : 18
                    },
                    "indices" : 19,
                    "material" : 4
                },
                {
                    "attributes" : {
                        "POSITION" : 20,
                        "NORMAL" : 21,
                        "TEXCOORD_0" : 22
                    },
                    "indices" : 19,
                    "material" : 5
                },
                {
                    "attributes" : {
                        "POSITION" : 23,
                        "NORMAL" : 24,
                        "TEXCOORD_0" : 25
                    },
                    "indices" : 19,
                    "material" : 6
                },
                {
                    "attributes" : {
                        "POSITION" : 26,
                        "NORMAL" : 27,
                        "TEXCOORD_0" : 28
                    },
                    "indices" : 19,
                    "material" : 7
                }
            ]
        }
    ],
    "accessors" : [
        {
            "bufferView" : 0,
            "componentType" : 5126,
            "count" : 298,
            "max" : [
                1,
                1,
                4.241713523864746
            ],
            "min" : [
                -1,
                -1,
                -4.493931293487549
            ],
            "type" : "VEC3"
        },
        {
            "bufferView" : 1,
            "componentType" : 5126,
            "count" : 298,
            "type" : "VEC3"
        },
        {
            "bufferView" : 2,
            "componentType" : 5126,
            "count" : 298,
            "type" : "VEC2"
        },
        {
            "bufferView" : 3,
            "componentType" : 5123,
            "count" : 624,
            "type" : "SCALAR"
        },
        {
            "bufferView" : 4,
            "componentType" : 5126,
            "count" : 24,
            "max" : [
                -0.42189735174179077,
                0.7876377105712891,
                0.7876377105712891
            ],
            "min" : [
                -1.1512233018875122,
                -0.7876377105712891,
                -0.7876377105712891
            ],
            "type" : "VEC3"
        },
        {
            "bufferView" : 5,
            "componentType" : 5126,
            "count" : 24,
            "type" : "VEC3"
        },
        {
            "bufferView" : 6,
            "componentType" : 5126,
            "count" : 24,
            "type" : "VEC2"
        },
        {
            "bufferView" : 7,
            "componentType" : 5123,
            "count" : 36,
            "type" : "SCALAR"
        },
        {
            "bufferView" : 8,
            "componentType" : 5126,
            "count" : 8,
            "max" : [
                -1.1558301448822021,
                0.6524350047111511,
                0.15516775846481323
            ],
            "min" : [
                -1.1558308601379395,
                -0.6373808979988098,
                -0.6608306765556335
            ],
            "type" : "VEC3"
        },
        {
            "bufferView" : 9,
            "componentType" : 5126,
            "count" : 8,
            "type" : "VEC3"
        },
        {
            "bufferView" : 10,
            "componentType" : 5126,
            "count" : 8,
            "type" : "VEC2"
        },
        {
            "bufferView" : 11,
            "componentType" : 5123,
            "count" : 12,
            "type" : "SCALAR"
        },
        {
            "bufferView" : 12,
            "componentType" : 5126,
            "count" : 12,
            "max" : [
                -1.1558303833007812,
                0.1590576171875,
                0.6565070748329163
            ],
            "min" : [
                -1.1558308601379395,
                -0.637380838394165,
                -0.6608306765556335
            ],
            "type" : "VEC3"
        },
        {
            "bufferView" : 13,
            "componentType" : 5126,
            "count" : 12,
            "type" : "VEC3"
        },
        {
            "bufferView" : 14,
            "componentType" : 5126,
            "count" : 12,
            "type" : "VEC2"
        },
        {
            "bufferView" : 15,
            "componentType" : 5123,
            "count" : 18,
            "type" : "SCALAR"
        },
        {
            "bufferView" : 16,
            "componentType" : 5126,
            "count" : 4,
            "max" : [
                -1.1558301448822021,
                0.6475500464439392,
                -0.3598443865776062
            ],
            "min" : [
                -1.1558303833007812,
                0.3249492645263672,
                -0.6608306765556335
            ],
            "type" : "VEC3"
        },
        {
            "bufferView" : 17,
            "componentType" : 5126,
            "count" : 4,
            "type" : "VEC3"
        },
        {
            "bufferView" : 18,
            "componentType" : 5126,
            "count" : 4,
            "type" : "VEC2"
        },
        {
            "bufferView" : 19,
            "componentType" : 5123,
            "count" : 6,
            "type" : "SCALAR"
        },
        {
            "bufferView" : 20,
            "componentType" : 5126,
            "count" : 4,
            "max" : [
                -1.1558306217193604,
                -0.31478002667427063,
                0.15516775846481323
            ],
            "min" : [
                -1.1558308601379395,
                -0.637380838394165,
                -0.1458185315132141
            ],
            "type" : "VEC3"
        },
        {
            "bufferView" : 21,
            "componentType" : 5126,
            "count" : 4,
            "type" : "VEC3"
        },
        {
            "bufferView" : 22,
            "componentType" : 5126,
            "count" : 4,
            "type" : "VEC2"
        },
        {
            "bufferView" : 23,
            "componentType" : 5126,
            "count" : 4,
            "max" : [
                -1.1558303833007812,
                0.16882747411727905,
                0.6565070748329163
            ],
            "min" : [
                -1.1558306217193604,
                -0.15377333760261536,
                0.3555208444595337
            ],
            "type" : "VEC3"
        },
        {
            "bufferView" : 24,
            "componentType" : 5126,
            "count" : 4,
            "type" : "VEC3"
        },
        {
            "bufferView" : 25,
            "componentType" : 5126,
            "count" : 4,
            "type" : "VEC2"
        },
        {
            "bufferView" : 26,
            "componentType" : 5126,
            "count" : 4,
            "max" : [
                -1.1558301448822021,
                0.6622048020362854,
                0.6565070748329163
            ],
            "min" : [
                -1.1558303833007812,
                0.3396040201187134,
                0.3555208444595337
            ],
            "type" : "VEC3"
        },
        {
            "bufferView" : 27,
            "componentType" : 5126,
            "count" : 4,
            "type" : "VEC3"
        },
        {
            "bufferView" : 28,
            "componentType" : 5126,
            "count" : 4,
            "type" : "VEC2"
        },
        {
            "bufferView" : 29,
            "componentType" : 5126,
            "count" : 250,
            "max" : [
                10.416666666666666
            ],
            "min" : [
                0.041666666666666664
            ],
            "type" : "SCALAR"
        },
        {
            "bufferView" : 30,
            "componentType" : 5126,
            "count" : 250,
            "type" : "VEC3"
        },
        {
            "bufferView" : 31,
            "componentType" : 5126,
            "count" : 211,
            "max" : [
                10.416666666666666
            ],
            "min" : [
                1.6666666666666667
            ],
            "type" : "SCALAR"
        },
        {
            "bufferView" : 32,
            "componentType" : 5126,
            "count" : 211,
            "type" : "VEC3"
        },
        {
            "bufferView" : 33,
            "componentType" : 5126,
            "count" : 121,
            "max" : [
                8.333333333333334
            ],
            "min" : [
                3.3333333333333335
            ],
            "type" : "SCALAR"
        },
        {
            "bufferView" : 34,
            "componentType" : 5126,
            "count" : 121,
            "type" : "VEC4"
        }
    ],
    "bufferViews" : [
        {
            "buffer" : 0,
            "byteLength" : 3576,
            "byteOffset" : 0
        },
        {
            "buffer" : 0,
            "byteLength" : 3576,
            "byteOffset" : 3576
        },
        {
            "buffer" : 0,
            "byteLength" : 2384,
            "byteOffset" : 7152
        },
        {
            "buffer" : 0,
            "byteLength" : 1248,
            "byteOffset" : 9536
        },
        {
            "buffer" : 0,
            "byteLength" : 288,
            "byteOffset" : 10784
        },
        {
            "buffer" : 0,
            "byteLength" : 288,
            "byteOffset" : 11072
        },
        {
            "buffer" : 0,
            "byteLength" : 192,
            "byteOffset" : 11360
        },
        {
            "buffer" : 0,
            "byteLength" : 72,
            "byteOffset" : 11552
        },
        {
            "buffer" : 0,
            "byteLength" : 96,
            "byteOffset" : 11624
        },
        {
            "buffer" : 0,
            "byteLength" : 96,
            "byteOffset" : 11720
        },
        {
            "buffer" : 0,
            "byteLength" : 64,
            "byteOffset" : 11816
        },
        {
            "buffer" : 0,
            "byteLength" : 24,
            "byteOffset" : 11880
        },
        {
            "buffer" : 0,
            "byteLength" : 144,
            "byteOffset" : 11904
        },
        {
            "buffer" : 0,
            "byteLength" : 144,
            "byteOffset" : 12048
        },
        {
            "buffer" : 0,
            "byteLength" : 96,
            "byteOffset" : 12192
        },
        {
            "buffer" : 0,
            "byteLength" : 36,
            "byteOffset" : 12288
        },
        {
            "buffer" : 0,
            "byteLength" : 48,
            "byteOffset" : 12324
        },
        {
            "buffer" : 0,
            "byteLength" : 48,
            "byteOffset" : 12372
        },
        {
            "buffer" : 0,
            "byteLength" : 32,
            "byteOffset" : 12420
        },
        {
            "buffer" : 0,
            "byteLength" : 12,
            "byteOffset" : 12452
        },
        {
            "buffer" : 0,
            "byteLength" : 48,
            "byteOffset" : 12464
        },
        {
            "buffer" : 0,
            "byteLength" : 48,
            "byteOffset" : 12512
        },
        {
            "buffer" : 0,
            "byteLength" : 32,
            "byteOffset" : 12560
        },
        {
            "buffer" : 0,
            "byteLength" : 48,
            "byteOffset" : 12592
        },
        {
            "buffer" : 0,
            "byteLength" : 48,
            "byteOffset" : 12640
        },
        {
            "buffer" : 0,
            "byteLength" : 32,
            "byteOffset" : 12688
        },
        {
            "buffer" : 0,
            "byteLength" : 48,
            "byteOffset" : 12720
        },
        {
            "buffer" : 0,
            "byteLength" : 48,
            "byteOffset" : 12768
        },
        {
            "buffer" : 0,
            "byteLength" : 32,
            "byteOffset" : 12816
        },
        {
            "buffer" : 0,
            "byteLength" : 1000,
            "byteOffset" : 12848
        },
        {
            "buffer" : 0,
            "byteLength" : 3000,
            "byteOffset" : 13848
        },
        {
            "buffer" : 0,
            "byteLength" : 844,
            "byteOffset" : 16848
        },
        {
            "buffer" : 0,
            "byteLength" : 2532,
            "byteOffset" : 17692
        },
        {
            "buffer" : 0,
            "byteLength" : 484,
            "byteOffset" : 20224
        },
        {
            "buffer" : 0,
            "byteLength" : 1936,
            "byteOffset" : 20708
        }
    ],
    "buffers" : [
        {
            "byteLength" : 22644,
            "uri" : "data:application/octet-stream;base64,"
        }
    ]
}
